<svg width="24" height="24" viewBox="0 0 24 24" fill="none" xmlns="http://www.w3.org/2000/svg">
<g clip-path="url(#clip0_274_1374)">
<path d="M21.509 8.58486H20.8922L20.9246 6.31686C20.9207 6.18432 20.8697 6.05751 20.7806 5.95926L15.4814 0.160861C15.4388 0.112216 15.3867 0.0728406 15.3283 0.0451789C15.2699 0.0175172 15.2064 0.00216008 15.1418 6.10352e-05L4.05381 6.10352e-05C3.8052 0.0040523 3.56784 0.104343 3.3917 0.27982C3.21555 0.455297 3.11435 0.692273 3.10941 0.940861V8.58486H2.49141C2.14941 8.58486 1.81941 8.72646 1.57941 8.97846C1.33454 9.23458 1.1986 9.57572 1.20021 9.93006V16.9261C1.20021 17.6677 1.77861 18.2701 2.49141 18.2701H3.10941V23.0581C3.11406 23.3073 3.21545 23.5449 3.39215 23.7207C3.56884 23.8965 3.80698 23.9967 4.05621 24.0001H19.9898C20.4878 24.0001 20.9258 23.5777 20.9258 23.0593V18.2713H21.5102C22.223 18.2713 22.8014 17.6677 22.8014 16.9249V9.92886C22.8014 9.57366 22.6658 9.23046 22.4234 8.97846C22.3058 8.8547 22.1644 8.75603 22.0077 8.68839C21.8509 8.62074 21.6821 8.58553 21.5114 8.58486H21.509ZM4.74021 1.65366H13.0874V7.14606C13.0869 7.26973 13.1342 7.3888 13.2194 7.47846C13.2607 7.5219 13.3104 7.55653 13.3655 7.58025C13.4206 7.60396 13.4799 7.61628 13.5398 7.61646H19.2506V8.58486H4.74021V1.65366ZM4.74021 22.3465V18.2701H19.2506V22.3465H4.74021ZM14.7494 1.82406L15.2114 2.34486L18.3074 5.76846L18.479 5.97606H15.3146C15.0746 5.97606 14.9246 5.93646 14.861 5.85606C14.7974 5.77806 14.7602 5.65206 14.7494 5.48046V1.82406ZM3.60021 17.0785V9.87846H5.90181C6.77301 9.87846 7.34181 9.91446 7.60581 9.98646C8.01381 10.0945 8.35461 10.3297 8.62941 10.6921C8.90301 11.0533 9.04101 11.5201 9.04101 12.0937C9.04101 12.5353 8.96181 12.9073 8.80341 13.2097C8.64501 13.5097 8.44341 13.7461 8.19981 13.9177C7.97714 14.0802 7.72416 14.1965 7.45581 14.2597C7.11381 14.3281 6.61821 14.3629 5.96901 14.3629H5.03421V17.0785H3.60021ZM5.03421 11.0965V13.1401H5.81901C6.38421 13.1401 6.76221 13.1017 6.95301 13.0273C7.13743 12.9577 7.2954 12.832 7.40474 12.668C7.51408 12.504 7.56929 12.3099 7.56261 12.1129C7.57136 11.8758 7.48988 11.6442 7.33461 11.4649C7.18478 11.2957 6.98147 11.183 6.75861 11.1457C6.58821 11.1133 6.24381 11.0977 5.72661 11.0977H5.03421V11.0965ZM9.88221 9.87846H12.503C13.0946 9.87846 13.5446 9.92406 13.8554 10.0165C14.2718 10.1401 14.6282 10.3621 14.9258 10.6789C15.2222 10.9969 15.449 11.3857 15.6038 11.8453C15.7598 12.3061 15.8366 12.8725 15.8366 13.5469C15.8366 14.1397 15.7646 14.6509 15.6182 15.0793C15.4406 15.6037 15.1862 16.0273 14.8574 16.3513C14.609 16.5973 14.273 16.7893 13.8494 16.9273C13.5338 17.0281 13.1102 17.0785 12.581 17.0785H9.88221V9.87846ZM11.3162 11.0965V15.8653H12.3866C12.7874 15.8653 13.0766 15.8425 13.2542 15.7969C13.487 15.7369 13.6802 15.6385 13.8326 15.4969C13.9862 15.3565 14.1122 15.1249 14.2082 14.8021C14.3054 14.4793 14.3534 14.0401 14.3534 13.4833C14.3534 12.9265 14.3054 12.4993 14.2094 12.2017C14.1332 11.9391 13.993 11.6995 13.8014 11.5045C13.6162 11.3316 13.3863 11.214 13.1378 11.1649C12.9374 11.1193 12.545 11.0965 11.9618 11.0965H11.3162ZM16.7318 17.0785V9.87846H21.6002V11.0965H18.1658V12.8005H21.1298V14.0185H18.1658V17.0785H16.7318Z" fill="white"/>
</g>
<defs>
<clipPath id="clip0_274_1374">
<rect width="24" height="24" fill="white"/>
</clipPath>
</defs>
</svg>
