<svg width="36" height="36" viewBox="0 0 36 36" fill="none" xmlns="http://www.w3.org/2000/svg">
<path d="M20.925 18L16.2 15.3V20.7L20.925 18Z" fill="#005099"/>
<path fill-rule="evenodd" clip-rule="evenodd" d="M0 5.625C0 2.5184 2.5184 0 5.625 0H30.375C33.4816 0 36 2.5184 36 5.625V30.375C36 33.4816 33.4816 36 30.375 36H5.625C2.5184 36 0 33.4816 0 30.375V5.625ZM24.975 12.0375C25.7625 12.2625 26.325 12.825 26.55 13.6125C27 15.075 27 18 27 18C27 18 27 20.925 26.6625 22.3875C26.4375 23.175 25.875 23.7375 25.0875 23.9625C23.625 24.3 18 24.3 18 24.3C18 24.3 12.2625 24.3 10.9125 23.9625C10.125 23.7375 9.5625 23.175 9.3375 22.3875C9 20.925 9 18 9 18C9 18 9 15.075 9.225 13.6125C9.45 12.825 10.0125 12.2625 10.8 12.0375C12.2625 11.7 17.8875 11.7 17.8875 11.7C17.8875 11.7 23.625 11.7 24.975 12.0375Z" fill="#005099"/>
</svg>
