<?xml version="1.0" standalone="no"?>
<!DOCTYPE svg PUBLIC "-//W3C//DTD SVG 20010904//EN"
 "http://www.w3.org/TR/2001/REC-SVG-20010904/DTD/svg10.dtd">
<svg version="1.0" xmlns="http://www.w3.org/2000/svg"
 width="150.000000pt" height="150.000000pt" viewBox="0 0 150.000000 150.000000"
 preserveAspectRatio="xMidYMid meet">
<metadata>
Created by potrace 1.14, written by Peter Selinger 2001-2017
</metadata>
<g transform="translate(0.000000,150.000000) scale(0.100000,-0.100000)"
fill="#000000" stroke="none">
<path d="M605 1486 c-33 -7 -68 -16 -77 -20 -10 -3 -26 -9 -35 -13 -10 -3 -24
-7 -32 -9 -34 -7 -177 -104 -232 -157 -157 -153 -231 -339 -224 -560 5 -155
38 -261 119 -386 137 -213 366 -336 627 -339 315 -3 608 206 708 504 30 90 33
109 36 232 5 212 -65 387 -215 541 -83 84 -239 176 -331 195 -13 3 -35 8 -49
11 -50 13 -236 13 -295 1z"/>
</g>
</svg>
